# Blender v2.77 (sub 0) OBJ File: ''
# www.blender.org
mtllib Chao Container.mtl
o Mesh_0890
v -1.000000 -0.000000 1.000000
v -1.000000 2.000000 1.000001
v -1.000000 2.000001 -1.000000
v -1.000000 0.000000 -1.000000
v 1.000000 -0.000000 1.000000
v 1.000000 2.000000 1.000001
v 1.000000 0.000000 -1.000000
v 1.000000 2.000001 -1.000000
v -1.000000 2.000000 1.000001
v 1.000000 2.000000 1.000001
v 1.000000 2.000001 -1.000000
v -1.000000 2.000001 -1.000000
vt 1.0000 -0.9961
vt 1.0000 0.0000
vt 0.0000 0.0000
vt 0.0000 -0.9961
vt 1.0000 -0.9961
vt 1.0000 0.0000
vt 0.0000 0.0000
vt 0.0000 -0.9961
vt 1.0000 -0.9961
vt 1.0000 0.0000
vt 0.0000 0.0000
vt 0.0000 -0.9961
vt 1.0000 -0.9961
vt 1.0000 0.0000
vt 0.0000 0.0000
vt 0.0000 -0.9961
vt 0.0000 -0.9961
vt 1.0000 -0.9961
vt 1.0000 0.0000
vt 0.0000 0.0000
vn -1.0000 0.0000 0.0000
vn 0.0000 -0.0000 1.0000
vn 1.0000 0.0000 0.0000
vn 0.0000 0.0000 -1.0000
vn 0.0000 1.0000 0.0000
usemtl Tex_0158_0_png
s 1
f 1/1/1 2/2/1 3/3/1
f 3/3/1 4/4/1 1/1/1
f 5/5/2 6/6/2 2/7/2
f 2/7/2 1/8/2 5/5/2
f 7/9/3 8/10/3 6/11/3
f 6/11/3 5/12/3 7/9/3
f 4/13/4 3/14/4 8/15/4
f 8/15/4 7/16/4 4/13/4
usemtl Tex_0157_0_png
f 9/17/5 10/18/5 11/19/5
f 11/19/5 12/20/5 9/17/5
